{
  "accessors": [
    {
      "bufferView": 2,
      "componentType": 5126,
      "count": 441,
      "max": [
        93.95149993896484,
        4.417500019073486,
        3.559799909591675
      ],
      "min": [
        86.12689971923828,
        -4.426301002502441,
        -3.642699956893921
      ],
      "type": "VEC3"
    },
    {
      "bufferView": 2,
      "byteOffset": 5292,
      "componentType": 5126,
      "count": 441,
      "max": [
        0.9864962100982666,
        0.9991892576217651,
        0.9983605146408081
      ],
      "min": [
        -0.9982752203941345,
        -0.9906782507896423,
        -0.998001217842102
      ],
      "type": "VEC3"
    },
    {
      "bufferView": 3,
      "componentType": 5126,
      "count": 441,
      "max": [
        0.8513832688331604,
        0.8580688238143921,
        0.8238950967788696,
        1.0
      ],
      "min": [
        -0.9557657241821289,
        -0.9492679834365845,
        -0.9141181707382202,
        1.0
      ],
      "type": "VEC4"
    },
    {
      "bufferView": 1,
      "componentType": 5126,
      "count": 441,
      "max": [
        0.3285999894142151,
        0.42879998683929443
      ],
      "min": [
        0.0010000000474974513,
        0.0010000000474974513
      ],
      "type": "VEC2"
    },
    {
      "bufferView": 0,
      "componentType": 5125,
      "count": 2304,
      "type": "SCALAR"
    },
    {
      "bufferView": 2,
      "byteOffset": 10584,
      "componentType": 5126,
      "count": 441,
      "max": [
        83.76130676269531,
        3.6214001178741455,
        3.4725000858306885
      ],
      "min": [
        76.26409912109375,
        -3.5690999031066895,
        -3.363300085067749
      ],
      "type": "VEC3"
    },
    {
      "bufferView": 2,
      "byteOffset": 15876,
      "componentType": 5126,
      "count": 441,
      "max": [
        0.9883803725242615,
        0.9866036176681519,
        0.9997803568840027
      ],
      "min": [
        -0.9968737363815308,
        -0.9981737732887268,
        -0.9968851208686829
      ],
      "type": "VEC3"
    },
    {
      "bufferView": 3,
      "byteOffset": 7056,
      "componentType": 5126,
      "count": 441,
      "max": [
        0.8696592450141907,
        0.8318899869918823,
        0.8446025848388672,
        1.0
      ],
      "min": [
        -0.8671289682388306,
        -0.8419270515441895,
        -0.9027418494224548,
        1.0
      ],
      "type": "VEC4"
    },
    {
      "bufferView": 1,
      "byteOffset": 3528,
      "componentType": 5126,
      "count": 441,
      "max": [
        0.7628999948501587,
        0.6175000071525574
      ],
      "min": [
        0.38850000500679016,
        0.2770000100135803
      ],
      "type": "VEC2"
    },
    {
      "bufferView": 0,
      "byteOffset": 9216,
      "componentType": 5125,
      "count": 2304,
      "type": "SCALAR"
    },
    {
      "bufferView": 2,
      "byteOffset": 21168,
      "componentType": 5126,
      "count": 441,
      "max": [
        73.75920104980469,
        3.8984999656677246,
        3.797499895095825
      ],
      "min": [
        66.18190002441406,
        -3.7867000102996826,
        -3.747299909591675
      ],
      "type": "VEC3"
    },
    {
      "bufferView": 2,
      "byteOffset": 26460,
      "componentType": 5126,
      "count": 441,
      "max": [
        0.9900619983673096,
        0.9953752160072327,
        0.9938890933990479
      ],
      "min": [
        -0.9999047517776489,
        -0.9913480281829834,
        -0.9934229850769043
      ],
      "type": "VEC3"
    },
    {
      "bufferView": 3,
      "byteOffset": 14112,
      "componentType": 5126,
      "count": 441,
      "max": [
        0.916652500629425,
        0.8754922747612,
        0.7962998747825623,
        1.0
      ],
      "min": [
        -0.9934448599815369,
        -0.7925893664360046,
        -0.7998692393302917,
        1.0
      ],
      "type": "VEC4"
    },
    {
      "bufferView": 1,
      "byteOffset": 7056,
      "componentType": 5126,
      "count": 441,
      "max": [
        0.3750999867916107,
        0.9940000176429749
      ],
      "min": [
        0.011599999852478504,
        0.621999979019165
      ],
      "type": "VEC2"
    },
    {
      "bufferView": 0,
      "byteOffset": 18432,
      "componentType": 5125,
      "count": 2304,
      "type": "SCALAR"
    },
    {
      "bufferView": 2,
      "byteOffset": 31752,
      "componentType": 5126,
      "count": 441,
      "max": [
        61.40729904174805,
        1.202299952507019,
        1.4882999658584595
      ],
      "min": [
        58.55730056762695,
        -1.1998000144958496,
        -1.4837000370025635
      ],
      "type": "VEC3"
    },
    {
      "bufferView": 2,
      "byteOffset": 37044,
      "componentType": 5126,
      "count": 441,
      "max": [
        0.9712112545967102,
        0.995379626750946,
        0.9979950189590454
      ],
      "min": [
        -0.9866008758544922,
        -0.9982209801673889,
        -0.996268630027771
      ],
      "type": "VEC3"
    },
    {
      "bufferView": 3,
      "byteOffset": 21168,
      "componentType": 5126,
      "count": 441,
      "max": [
        0.8777996897697449,
        0.8803176283836365,
        0.847069501876831,
        1.0
      ],
      "min": [
        -0.9723778963088989,
        -0.9317071437835693,
        -0.9192052483558655,
        1.0
      ],
      "type": "VEC4"
    },
    {
      "bufferView": 1,
      "byteOffset": 10584,
      "componentType": 5126,
      "count": 441,
      "max": [
        0.3921999931335449,
        0.5327000021934509
      ],
      "min": [
        0.2558000087738037,
        0.39910000562667847
      ],
      "type": "VEC2"
    },
    {
      "bufferView": 0,
      "byteOffset": 27648,
      "componentType": 5125,
      "count": 2304,
      "type": "SCALAR"
    },
    {
      "bufferView": 2,
      "byteOffset": 42336,
      "componentType": 5126,
      "count": 441,
      "max": [
        53.23249816894531,
        3.9798998832702637,
        3.680000066757202
      ],
      "min": [
        46.85060119628906,
        -4.009399890899658,
        -3.702399969100952
      ],
      "type": "VEC3"
    },
    {
      "bufferView": 2,
      "byteOffset": 47628,
      "componentType": 5126,
      "count": 441,
      "max": [
        0.9991351366043091,
        0.9855832457542419,
        0.9909334778785706
      ],
      "min": [
        -0.9840739965438843,
        -0.9844407439231873,
        -0.9965295195579529
      ],
      "type": "VEC3"
    },
    {
      "bufferView": 3,
      "byteOffset": 28224,
      "componentType": 5126,
      "count": 441,
      "max": [
        0.7233762741088867,
        0.9157068729400635,
        0.985081136226654,
        1.0
      ],
      "min": [
        -0.8671212792396545,
        -0.8416692614555359,
        -0.9733235836029053,
        1.0
      ],
      "type": "VEC4"
    },
    {
      "bufferView": 1,
      "byteOffset": 14112,
      "componentType": 5126,
      "count": 441,
      "max": [
        0.6715999841690063,
        0.9842000007629395
      ],
      "min": [
        0.3140999972820282,
        0.6485000252723694
      ],
      "type": "VEC2"
    },
    {
      "bufferView": 0,
      "byteOffset": 36864,
      "componentType": 5125,
      "count": 2304,
      "type": "SCALAR"
    },
    {
      "bufferView": 2,
      "byteOffset": 52920,
      "componentType": 5126,
      "count": 441,
      "max": [
        42.804901123046875,
        3.815000057220459,
        3.169300079345703
      ],
      "min": [
        37.18920135498047,
        -3.8080999851226807,
        -3.1902999877929688
      ],
      "type": "VEC3"
    },
    {
      "bufferView": 2,
      "byteOffset": 58212,
      "componentType": 5126,
      "count": 441,
      "max": [
        0.9891074895858765,
        0.9927367568016052,
        0.9985679984092712
      ],
      "min": [
        -0.9999826550483704,
        -0.9995137453079224,
        -0.9964357614517212
      ],
      "type": "VEC3"
    },
    {
      "bufferView": 3,
      "byteOffset": 35280,
      "componentType": 5126,
      "count": 441,
      "max": [
        0.7458311915397644,
        0.9843831658363342,
        0.9372889399528503,
        1.0
      ],
      "min": [
        -0.9864898920059204,
        -0.9641357064247131,
        -0.9050717353820801,
        1.0
      ],
      "type": "VEC4"
    },
    {
      "bufferView": 1,
      "byteOffset": 17640,
      "componentType": 5126,
      "count": 441,
      "max": [
        0.5806000232696533,
        0.3862999975681305
      ],
      "min": [
        0.2928999960422516,
        0.0010000000474974513
      ],
      "type": "VEC2"
    },
    {
      "bufferView": 0,
      "byteOffset": 46080,
      "componentType": 5125,
      "count": 2304,
      "type": "SCALAR"
    },
    {
      "bufferView": 2,
      "byteOffset": 63504,
      "componentType": 5126,
      "count": 441,
      "max": [
        33.5635986328125,
        3.441699981689453,
        3.5552000999450684
      ],
      "min": [
        26.42609977722168,
        -3.3785998821258545,
        -3.578900098800659
      ],
      "type": "VEC3"
    },
    {
      "bufferView": 2,
      "byteOffset": 68796,
      "componentType": 5126,
      "count": 441,
      "max": [
        0.9998297691345215,
        0.9907535314559937,
        0.9970909953117371
      ],
      "min": [
        -0.9834122657775879,
        -0.9898713827133179,
        -0.9951486587524414
      ],
      "type": "VEC3"
    },
    {
      "bufferView": 3,
      "byteOffset": 42336,
      "componentType": 5126,
      "count": 441,
      "max": [
        0.9475036263465881,
        0.9452460408210754,
        0.9232312440872192,
        1.0
      ],
      "min": [
        -0.8028538823127747,
        -0.9181149005889893,
        -0.9118457436561584,
        1.0
      ],
      "type": "VEC4"
    },
    {
      "bufferView": 1,
      "byteOffset": 21168,
      "componentType": 5126,
      "count": 441,
      "max": [
        0.29429998993873596,
        0.6980999708175659
      ],
      "min": [
        0.0010000000474974513,
        0.29820001125335693
      ],
      "type": "VEC2"
    },
    {
      "bufferView": 0,
      "byteOffset": 55296,
      "componentType": 5125,
      "count": 2304,
      "type": "SCALAR"
    },
    {
      "bufferView": 2,
      "byteOffset": 74088,
      "componentType": 5126,
      "count": 441,
      "max": [
        23.3080997467041,
        2.8387999534606934,
        3.2363998889923096
      ],
      "min": [
        16.86989974975586,
        -2.862299919128418,
        -3.1552000045776367
      ],
      "type": "VEC3"
    },
    {
      "bufferView": 2,
      "byteOffset": 79380,
      "componentType": 5126,
      "count": 441,
      "max": [
        0.9993518590927124,
        0.9935692548751831,
        0.9978052377700806
      ],
      "min": [
        -0.9973241090774536,
        -0.996242344379425,
        -0.9999434947967529
      ],
      "type": "VEC3"
    },
    {
      "bufferView": 3,
      "byteOffset": 49392,
      "componentType": 5126,
      "count": 441,
      "max": [
        0.8986696600914001,
        0.9501208662986755,
        0.94480299949646,
        1.0
      ],
      "min": [
        -0.907942533493042,
        -0.9435410499572754,
        -0.9685965776443481,
        1.0
      ],
      "type": "VEC4"
    },
    {
      "bufferView": 1,
      "byteOffset": 24696,
      "componentType": 5126,
      "count": 441,
      "max": [
        0.9879999756813049,
        0.9556000232696533
      ],
      "min": [
        0.6378999948501587,
        0.680400013923645
      ],
      "type": "VEC2"
    },
    {
      "bufferView": 0,
      "byteOffset": 64512,
      "componentType": 5125,
      "count": 2304,
      "type": "SCALAR"
    },
    {
      "bufferView": 2,
      "byteOffset": 84672,
      "componentType": 5126,
      "count": 441,
      "max": [
        13.685098648071289,
        3.555500030517578,
        3.570499897003174
      ],
      "min": [
        6.3769001960754395,
        -3.4874000549316406,
        -3.6338999271392822
      ],
      "type": "VEC3"
    },
    {
      "bufferView": 2,
      "byteOffset": 89964,
      "componentType": 5126,
      "count": 441,
      "max": [
        0.9926862120628357,
        0.999477744102478,
        0.9991352558135986
      ],
      "min": [
        -0.9950488805770874,
        -0.9884597659111023,
        -0.9965607523918152
      ],
      "type": "VEC3"
    },
    {
      "bufferView": 3,
      "byteOffset": 56448,
      "componentType": 5126,
      "count": 441,
      "max": [
        0.9742556214332581,
        0.8380772471427917,
        0.9056615233421326,
        1.0
      ],
      "min": [
        -0.8927881717681885,
        -0.8895706534385681,
        -0.9897992014884949,
        1.0
      ],
      "type": "VEC4"
    },
    {
      "bufferView": 1,
      "byteOffset": 28224,
      "componentType": 5126,
      "count": 441,
      "max": [
        0.8621000051498413,
        0.3716999888420105
      ],
      "min": [
        0.48399999737739563,
        0.011599999852478504
      ],
      "type": "VEC2"
    },
    {
      "bufferView": 0,
      "byteOffset": 73728,
      "componentType": 5125,
      "count": 2304,
      "type": "SCALAR"
    },
    {
      "bufferView": 2,
      "byteOffset": 95256,
      "componentType": 5126,
      "count": 441,
      "max": [
        3.155700922012329,
        3.9465999603271484,
        3.783799886703491
      ],
      "min": [
        -3.113800048828125,
        -3.8540000915527344,
        -3.827500104904175
      ],
      "type": "VEC3"
    },
    {
      "bufferView": 2,
      "byteOffset": 100548,
      "componentType": 5126,
      "count": 441,
      "max": [
        0.9996702671051025,
        0.9951435327529907,
        0.9669367671012878
      ],
      "min": [
        -0.9965915679931641,
        -0.9749168753623962,
        -0.9729629755020142
      ],
      "type": "VEC3"
    },
    {
      "bufferView": 3,
      "byteOffset": 63504,
      "componentType": 5126,
      "count": 441,
      "max": [
        0.8588145971298218,
        0.9749681353569031,
        0.9063312411308289,
        1.0
      ],
      "min": [
        -0.8847260475158691,
        -0.9580207467079163,
        -0.7770128846168518,
        1.0
      ],
      "type": "VEC4"
    },
    {
      "bufferView": 1,
      "byteOffset": 31752,
      "componentType": 5126,
      "count": 441,
      "max": [
        0.9990000128746033,
        0.7465000152587891
      ],
      "min": [
        0.6538000106811523,
        0.4043999910354614
      ],
      "type": "VEC2"
    },
    {
      "bufferView": 0,
      "byteOffset": 82944,
      "componentType": 5125,
      "count": 2304,
      "type": "SCALAR"
    }
  ],
  "asset": {
    "extras": {
      "author": "George Hager (https://sketchfab.com/adjective.george)",
      "license": "CC-BY-4.0 (http://creativecommons.org/licenses/by/4.0/)",
      "source": "https://sketchfab.com/3d-models/meteorites-7684d220b9cf49c9ba1bd6256aa0416f",
      "title": "Meteorites"
    },
    "generator": "Sketchfab-12.66.0",
    "version": "2.0"
  },
  "bufferViews": [
    {
      "buffer": 0,
      "byteLength": 92160,
      "name": "floatBufferViews",
      "target": 34963
    },
    {
      "buffer": 0,
      "byteLength": 35280,
      "byteOffset": 92160,
      "byteStride": 8,
      "name": "floatBufferViews",
      "target": 34962
    },
    {
      "buffer": 0,
      "byteLength": 105840,
      "byteOffset": 127440,
      "byteStride": 12,
      "name": "floatBufferViews",
      "target": 34962
    },
    {
      "buffer": 0,
      "byteLength": 70560,
      "byteOffset": 233280,
      "byteStride": 16,
      "name": "floatBufferViews",
      "target": 34962
    }
  ],
  "buffers": [
    {
      "byteLength": 303840,
      "uri": "scene.bin"
    }
  ],
  "images": [
    {
      "uri": "textures/07___Default_baseColor.jpeg"
    },
    {
      "uri": "textures/07___Default_metallicRoughness.png"
    },
    {
      "uri": "textures/07___Default_normal.png"
    }
  ],
  "materials": [
    {
      "doubleSided": true,
      "name": "07___Default",
      "normalTexture": {
        "index": 2
      },
      "occlusionTexture": {
        "index": 1
      },
      "pbrMetallicRoughness": {
        "baseColorTexture": {
          "index": 0
        },
        "metallicRoughnessTexture": {
          "index": 1
        }
      }
    }
  ],
  "meshes": [
    {
      "name": "defaultMaterial",
      "primitives": [
        {
          "attributes": {
            "NORMAL": 1,
            "POSITION": 0,
            "TANGENT": 2,
            "TEXCOORD_0": 3
          },
          "indices": 4,
          "material": 0,
          "mode": 4
        }
      ]
    },
    {
      "name": "defaultMaterial",
      "primitives": [
        {
          "attributes": {
            "NORMAL": 6,
            "POSITION": 5,
            "TANGENT": 7,
            "TEXCOORD_0": 8
          },
          "indices": 9,
          "material": 0,
          "mode": 4
        }
      ]
    },
    {
      "name": "defaultMaterial",
      "primitives": [
        {
          "attributes": {
            "NORMAL": 11,
            "POSITION": 10,
            "TANGENT": 12,
            "TEXCOORD_0": 13
          },
          "indices": 14,
          "material": 0,
          "mode": 4
        }
      ]
    },
    {
      "name": "defaultMaterial",
      "primitives": [
        {
          "attributes": {
            "NORMAL": 16,
            "POSITION": 15,
            "TANGENT": 17,
            "TEXCOORD_0": 18
          },
          "indices": 19,
          "material": 0,
          "mode": 4
        }
      ]
    },
    {
      "name": "defaultMaterial",
      "primitives": [
        {
          "attributes": {
            "NORMAL": 21,
            "POSITION": 20,
            "TANGENT": 22,
            "TEXCOORD_0": 23
          },
          "indices": 24,
          "material": 0,
          "mode": 4
        }
      ]
    },
    {
      "name": "defaultMaterial",
      "primitives": [
        {
          "attributes": {
            "NORMAL": 26,
            "POSITION": 25,
            "TANGENT": 27,
            "TEXCOORD_0": 28
          },
          "indices": 29,
          "material": 0,
          "mode": 4
        }
      ]
    },
    {
      "name": "defaultMaterial",
      "primitives": [
        {
          "attributes": {
            "NORMAL": 31,
            "POSITION": 30,
            "TANGENT": 32,
            "TEXCOORD_0": 33
          },
          "indices": 34,
          "material": 0,
          "mode": 4
        }
      ]
    },
    {
      "name": "defaultMaterial",
      "primitives": [
        {
          "attributes": {
            "NORMAL": 36,
            "POSITION": 35,
            "TANGENT": 37,
            "TEXCOORD_0": 38
          },
          "indices": 39,
          "material": 0,
          "mode": 4
        }
      ]
    },
    {
      "name": "defaultMaterial",
      "primitives": [
        {
          "attributes": {
            "NORMAL": 41,
            "POSITION": 40,
            "TANGENT": 42,
            "TEXCOORD_0": 43
          },
          "indices": 44,
          "material": 0,
          "mode": 4
        }
      ]
    },
    {
      "name": "defaultMaterial",
      "primitives": [
        {
          "attributes": {
            "NORMAL": 46,
            "POSITION": 45,
            "TANGENT": 47,
            "TEXCOORD_0": 48
          },
          "indices": 49,
          "material": 0,
          "mode": 4
        }
      ]
    }
  ],
  "nodes": [
    {
      "children": [
        1
      ],
      "matrix": [
        1.0,
        0.0,
        0.0,
        0.0,
        0.0,
        2.220446049250313e-16,
        -1.0,
        0.0,
        0.0,
        1.0,
        2.220446049250313e-16,
        0.0,
        0.0,
        0.0,
        0.0,
        1.0
      ],
      "name": "Sketchfab_model"
    },
    {
      "children": [
        2,
        4,
        6,
        8,
        10,
        12,
        14,
        16,
        18,
        20
      ],
      "matrix": [
        1.0,
        0.0,
        0.0,
        0.0,
        0.0,
        -4.371139006309477e-08,
        0.999999999999999,
        0.0,
        0.0,
        -0.999999999999999,
        -4.371139006309477e-08,
        0.0,
        0.0,
        0.0,
        0.0,
        1.0
      ],
      "name": "Collada visual scene group"
    },
    {
      "children": [
        3
      ],
      "name": "Lp10"
    },
    {
      "mesh": 0,
      "name": "defaultMaterial"
    },
    {
      "children": [
        5
      ],
      "name": "Lp09"
    },
    {
      "mesh": 1,
      "name": "defaultMaterial"
    },
    {
      "children": [
        7
      ],
      "name": "Lp08"
    },
    {
      "mesh": 2,
      "name": "defaultMaterial"
    },
    {
      "children": [
        9
      ],
      "name": "Lp07"
    },
    {
      "mesh": 3,
      "name": "defaultMaterial"
    },
    {
      "children": [
        11
      ],
      "name": "Lp06"
    },
    {
      "mesh": 4,
      "name": "defaultMaterial"
    },
    {
      "children": [
        13
      ],
      "name": "Lp05"
    },
    {
      "mesh": 5,
      "name": "defaultMaterial"
    },
    {
      "children": [
        15
      ],
      "name": "Lp04"
    },
    {
      "mesh": 6,
      "name": "defaultMaterial"
    },
    {
      "children": [
        17
      ],
      "name": "Lp03"
    },
    {
      "mesh": 7,
      "name": "defaultMaterial"
    },
    {
      "children": [
        19
      ],
      "name": "Lp02"
    },
    {
      "mesh": 8,
      "name": "defaultMaterial"
    },
    {
      "children": [
        21
      ],
      "name": "Lp01"
    },
    {
      "mesh": 9,
      "name": "defaultMaterial"
    }
  ],
  "samplers": [
    {
      "magFilter": 9729,
      "minFilter": 9987,
      "wrapS": 10497,
      "wrapT": 10497
    }
  ],
  "scene": 0,
  "scenes": [
    {
      "name": "Sketchfab_Scene",
      "nodes": [
        0
      ]
    }
  ],
  "textures": [
    {
      "sampler": 0,
      "source": 0
    },
    {
      "sampler": 0,
      "source": 1
    },
    {
      "sampler": 0,
      "source": 2
    }
  ]
}
